<svg xmlns="http://www.w3.org/2000/svg" width="150" height="150" viewBox="0 0 150 150">
  <defs>
    <style>
      .cls-1 {
        fill: #fff;
      }

      .cls-2 {
        fill-rule: evenodd;
      }
    </style>
  </defs>
  <rect class="cls-1" x="3" y="42" width="144" height="67"/>
  <path id="_21:9" data-name="21:9" class="cls-2" d="M29.176,88.713a14.194,14.194,0,0,1,1.685-2.285q1.04-1.171,4.937-4.746A52.721,52.721,0,0,0,41.188,76.2a22.46,22.46,0,0,0,3.3-5.493,14.845,14.845,0,0,0,1.04-5.522,11.244,11.244,0,0,0-3.633-8.525q-3.633-3.428-9.99-3.428a15.446,15.446,0,0,0-9.668,2.959q-3.867,2.959-4.6,9.756l8.2,0.82q0.234-3.6,1.758-5.156a5.484,5.484,0,0,1,4.1-1.553,5.525,5.525,0,0,1,4.087,1.48,5.731,5.731,0,0,1,1.479,4.233,9.059,9.059,0,0,1-1.7,5.039,58.266,58.266,0,0,1-6.826,7.031q-6.915,6.416-9.258,10.3a19.869,19.869,0,0,0-2.812,8.218H45.523V88.713H29.176ZM72.154,53.234h-6.68a15.194,15.194,0,0,1-5.185,6.87,23.81,23.81,0,0,1-7,4v7.471a28.383,28.383,0,0,0,10.635-6.24V96.359h8.232V53.234ZM96.031,73.479V65.246H87.8v8.232h8.232Zm0,22.881V88.127H87.8v8.232h8.232ZM108.6,94.44a12.022,12.022,0,0,0,8.144,2.681,14.12,14.12,0,0,0,11.367-5.215q4.365-5.214,4.366-16.992,0-11.572-4.19-16.626a14.05,14.05,0,0,0-20.61-1.055A14.479,14.479,0,0,0,103.8,67.766a14.257,14.257,0,0,0,3.677,10.181,11.6,11.6,0,0,0,8.745,3.911,9.828,9.828,0,0,0,7.763-3.6q-0.5,7.383-2.285,9.727a5.3,5.3,0,0,1-4.336,2.344,4.522,4.522,0,0,1-3.252-1.172,5.764,5.764,0,0,1-1.523-3.6l-7.969.879Q105.494,91.76,108.6,94.44Zm13.022-20.493a5.092,5.092,0,0,1-4,1.875,5.145,5.145,0,0,1-4.1-1.948q-1.641-1.948-1.64-6.108,0-4.1,1.509-5.9a4.742,4.742,0,0,1,3.794-1.8,5.4,5.4,0,0,1,4.233,2.2,9.4,9.4,0,0,1,1.831,6.182A8.187,8.187,0,0,1,121.622,73.947Z"/>
</svg>
